<?xml version="1.0" encoding="UTF-8" standalone="no"?>
<svg
   width="16"
   height="16"
   viewBox="0 0 15.015385 16"
   fill="none"
   version="1.1"
   id="svg3"
   sodipodi:docname="mastodon.svg"
   inkscape:version="1.4.3 (0d15f75042, 2025-12-25)"
   xmlns:inkscape="http://www.inkscape.org/namespaces/inkscape"
   xmlns:sodipodi="http://sodipodi.sourceforge.net/DTD/sodipodi-0.dtd"
   xmlns="http://www.w3.org/2000/svg"
   xmlns:svg="http://www.w3.org/2000/svg">
  <sodipodi:namedview
     id="namedview3"
     pagecolor="#ffffff"
     bordercolor="#666666"
     borderopacity="1.0"
     inkscape:showpageshadow="2"
     inkscape:pageopacity="0.0"
     inkscape:pagecheckerboard="0"
     inkscape:deskcolor="#d1d1d1"
     inkscape:zoom="16"
     inkscape:cx="-17.65625"
     inkscape:cy="8.625"
     inkscape:window-width="2560"
     inkscape:window-height="1371"
     inkscape:window-x="0"
     inkscape:window-y="0"
     inkscape:window-maximized="1"
     inkscape:current-layer="svg3" />
  <path
     id="path1"
     style="fill:#000000;fill-opacity:1;stroke-width:0.246156"
     d="M 7.3643756,-2.3204348e-7 C 4.7335598,-2.3204348e-7 4.1688242,0.16141047 3.869154,0.20577071 2.1424392,0.46102307 0.56564906,1.6783118 0.18306544,3.4178169 c -0.18401799914,0.8566718 -0.20341738,1.806712 -0.16923219,2.677907 0.0487321,1.2493642 0.0581703,2.4961468 0.17163606,3.7404153 0.078442,0.8265188 0.21540671,1.6466718 0.40961881,2.4538678 0.36367317,1.490794 1.83558358,2.731381 3.27791208,3.237526 1.5442098,0.527833 3.2049929,0.615278 4.7961939,0.252888 0.1750414,-0.04071 0.3480698,-0.088 0.5187544,-0.141829 0.3869327,-0.12288 0.8399635,-0.260016 1.1730865,-0.501446 0.0046,-0.0034 0.0084,-0.008 0.01106,-0.01299 0.0027,-0.005 0.0041,-0.01066 0.0043,-0.01634 v -1.205779 c -9.8e-5,-0.0053 -0.0015,-0.01013 -0.0038,-0.0149 -0.0024,-0.0048 -0.0059,-0.0093 -0.01009,-0.0125 -0.0041,-0.0033 -0.0088,-0.0056 -0.01394,-0.0067 -0.0051,-0.0012 -0.0107,-0.0012 -0.01586,0 -1.0194784,0.243497 -2.0643688,0.365865 -3.1125254,0.363945 -1.8038057,0 -2.288999,-0.856175 -2.4279048,-1.212509 C 4.6805972,12.7114 4.6100319,12.390422 4.5816994,12.064068 c -2.953e-4,-0.0055 6.646e-4,-0.01132 0.00289,-0.01634 0.00222,-0.0049 0.00536,-0.0095 0.00962,-0.01298 0.00425,-0.0035 0.00954,-0.0056 0.014905,-0.0067 0.00537,-0.0012 0.010548,-0.0014 0.015864,0 1.0024699,0.241824 2.0302935,0.364216 3.0615639,0.363946 0.2480022,0 0.4952487,-1.84e-4 0.7432755,-0.0067 1.0371785,-0.02909 2.1305242,-0.08199 3.1509882,-0.281254 0.02546,-0.005 0.05078,-0.0098 0.0726,-0.01634 1.609612,-0.309074 3.141473,-1.279071 3.297142,-3.735609 0.0058,-0.096714 0.02019,-1.0131132 0.02019,-1.113471 7.13e-4,-0.3410736 0.109969,-2.4192017 -0.01587,-3.6961846 C 14.723535,1.8231892 13.225187,0.46829697 11.449025,0.20577071 11.149355,0.16141047 10.014165,-2.3204348e-7 7.3840872,-2.3204348e-7 Z M 5.1696456,2.6178102 c 0.8662719,0 1.5212989,0.3331572 1.9577087,0.9985659 L 7.5485117,4.3231129 7.9701498,3.6163761 C 8.4065596,2.9509674 9.0611159,2.6178102 9.925935,2.6178102 c 0.747724,0 1.350911,0.2632743 1.812035,0.7759679 0.445148,0.5134073 0.667325,1.2066855 0.666832,2.0798252 V 9.7447931 H 10.71248 V 5.5995658 c 0,-0.8726718 -0.364133,-1.3177995 -1.1038548,-1.3177995 -0.8131762,0 -1.2202027,0.5264246 -1.2202027,1.5663591 V 8.1173751 H 6.7061971 V 5.8481254 c 0,-1.0399345 -0.4079882,-1.5663591 -1.2211642,-1.5663591 -0.7353416,0 -1.1028939,0.4451277 -1.1028939,1.3177995 V 9.7447931 H 2.6902981 V 5.4736033 c 0,-0.872672 0.2226587,-1.5659256 0.6682747,-2.0798252 C 3.818269,2.8810845 4.4212086,2.6178102 5.1696456,2.6178102 Z" />
  <defs
     id="defs3">
    <linearGradient
       id="paint0_linear_89_8"
       x1="30.5"
       y1="0"
       x2="30.5"
       y2="65"
       gradientUnits="userSpaceOnUse">
      <stop
         stop-color="#6364FF"
         id="stop2" />
      <stop
         offset="1"
         stop-color="#563ACC"
         id="stop3" />
    </linearGradient>
  </defs>
</svg>
