<?xml version="1.0" encoding="UTF-8" standalone="no"?>
<svg
   xmlns:dc="http://purl.org/dc/elements/1.1/"
   xmlns:cc="http://creativecommons.org/ns#"
   xmlns:rdf="http://www.w3.org/1999/02/22-rdf-syntax-ns#"
   xmlns:svg="http://www.w3.org/2000/svg"
   xmlns="http://www.w3.org/2000/svg"
   xmlns:sodipodi="http://sodipodi.sourceforge.net/DTD/sodipodi-0.dtd"
   xmlns:inkscape="http://www.inkscape.org/namespaces/inkscape"
   version="1.1"
   id="svg4"
   sodipodi:docname="minima-social-icons.svg"
   width="16"
   height="16"
   inkscape:version="1.0.2 (e86c870879, 2021-01-15)">
  <metadata
     id="metadata10">
    <rdf:RDF>
      <cc:Work
         rdf:about="">
        <dc:format>image/svg+xml</dc:format>
        <dc:type
           rdf:resource="http://purl.org/dc/dcmitype/StillImage" />
        <dc:title></dc:title>
      </cc:Work>
    </rdf:RDF>
  </metadata>
  <defs
     id="defs8" />
  <sodipodi:namedview
     pagecolor="#ffffff"
     bordercolor="#666666"
     borderopacity="1"
     objecttolerance="10"
     gridtolerance="10"
     guidetolerance="10"
     inkscape:pageopacity="0"
     inkscape:pageshadow="2"
     inkscape:window-width="787"
     inkscape:window-height="480"
     id="namedview6"
     showgrid="false"
     inkscape:zoom="1.1750584"
     inkscape:cx="150"
     inkscape:cy="75"
     inkscape:window-x="0"
     inkscape:window-y="32"
     inkscape:window-maximized="0"
     inkscape:current-layer="svg4" />
  <path
     d="m 16,3.038 c -0.59,0.26 -1.22,0.437 -1.885,0.517 0.677,-0.407 1.198,-1.05 1.443,-1.816 -0.634,0.37 -1.337,0.64 -2.085,0.79 -0.598,-0.64 -1.45,-1.04 -2.396,-1.04 -1.812,0 -3.282,1.47 -3.282,3.28 0,0.26 0.03,0.51 0.085,0.75 C 5.152,5.389 2.733,4.079 1.114,2.099 0.83,2.58 0.67,3.14 0.67,3.75 0.67,4.89 1.25,5.893 2.13,6.482 1.592,6.465 1.085,6.317 0.643,6.072 v 0.04 c 0,1.59 1.13,2.918 2.633,3.22 C 3,9.406 2.71,9.446 2.411,9.446 c -0.21,0 -0.41,-0.02 -0.61,-0.058 0.42,1.304 1.63,2.253 3.07,2.28 -1.12,0.88 -2.54,1.404 -4.07,1.404 -0.26,0 -0.52,-0.015 -0.78,-0.045 1.46,0.93 3.18,1.474 5.04,1.474 6.04,0 9.34,-5 9.34,-9.33 0,-0.14 0,-0.28 -0.01,-0.42 0.64,-0.46 1.2,-1.04 1.64,-1.7 z"
     fill-rule="nonzero"
     id="path2" />
</svg>
