<?xml version="1.0" encoding="UTF-8" standalone="no"?>
<svg
   xmlns:dc="http://purl.org/dc/elements/1.1/"
   xmlns:cc="http://creativecommons.org/ns#"
   xmlns:rdf="http://www.w3.org/1999/02/22-rdf-syntax-ns#"
   xmlns:svg="http://www.w3.org/2000/svg"
   xmlns="http://www.w3.org/2000/svg"
   xmlns:sodipodi="http://sodipodi.sourceforge.net/DTD/sodipodi-0.dtd"
   xmlns:inkscape="http://www.inkscape.org/namespaces/inkscape"
   version="1.1"
   id="svg4"
   sodipodi:docname="minima-social-icons.svg"
   width="16"
   height="16"
   inkscape:version="1.0.2 (e86c870879, 2021-01-15)">
  <metadata
     id="metadata10">
    <rdf:RDF>
      <cc:Work
         rdf:about="">
        <dc:format>image/svg+xml</dc:format>
        <dc:type
           rdf:resource="http://purl.org/dc/dcmitype/StillImage" />
        <dc:title></dc:title>
      </cc:Work>
    </rdf:RDF>
  </metadata>
  <defs
     id="defs8" />
  <sodipodi:namedview
     pagecolor="#ffffff"
     bordercolor="#666666"
     borderopacity="1"
     objecttolerance="10"
     gridtolerance="10"
     guidetolerance="10"
     inkscape:pageopacity="0"
     inkscape:pageshadow="2"
     inkscape:window-width="1214"
     inkscape:window-height="774"
     id="namedview6"
     showgrid="false"
     inkscape:zoom="2.315214"
     inkscape:cx="150"
     inkscape:cy="75"
     inkscape:window-x="973"
     inkscape:window-y="413"
     inkscape:window-maximized="0"
     inkscape:current-layer="svg4" />
  <path
     d="M 8,0 C 3.58,0 0,3.582 0,8 c 0,3.535 2.292,6.533 5.47,7.59 0.4,0.075 0.547,-0.172 0.547,-0.385 0,-0.19 -0.007,-0.693 -0.01,-1.36 -2.226,0.483 -2.695,-1.073 -2.695,-1.073 -0.364,-0.924 -0.89,-1.17 -0.89,-1.17 -0.725,-0.496 0.056,-0.486 0.056,-0.486 0.803,0.056 1.225,0.824 1.225,0.824 0.714,1.223 1.873,0.87 2.33,0.665 0.072,-0.517 0.278,-0.87 0.507,-1.07 -1.777,-0.2 -3.644,-0.888 -3.644,-3.953 0,-0.873 0.31,-1.587 0.823,-2.147 -0.09,-0.202 -0.36,-1.015 0.07,-2.117 0,0 0.67,-0.215 2.2,0.82 0.64,-0.178 1.32,-0.266 2,-0.27 0.68,0.004 1.36,0.092 2,0.27 1.52,-1.035 2.19,-0.82 2.19,-0.82 0.43,1.102 0.16,1.915 0.08,2.117 0.51,0.56 0.82,1.274 0.82,2.147 0,3.073 -1.87,3.75 -3.65,3.947 0.28,0.24 0.54,0.73 0.54,1.48 0,1.07 -0.01,1.93 -0.01,2.19 0,0.21 0.14,0.46 0.55,0.38 C 13.71,14.53 16,11.53 16,8 16,3.582 12.418,0 8,0"
     id="path2" />
</svg>
