<?xml version="1.0" encoding="UTF-8" standalone="no"?>
<svg
   xmlns:dc="http://purl.org/dc/elements/1.1/"
   xmlns:cc="http://creativecommons.org/ns#"
   xmlns:rdf="http://www.w3.org/1999/02/22-rdf-syntax-ns#"
   xmlns:svg="http://www.w3.org/2000/svg"
   xmlns="http://www.w3.org/2000/svg"
   xmlns:sodipodi="http://sodipodi.sourceforge.net/DTD/sodipodi-0.dtd"
   xmlns:inkscape="http://www.inkscape.org/namespaces/inkscape"
   width="16"
   height="18"
   viewBox="0 0 16 16"
   version="1.1"
   id="svg4"
   sodipodi:docname="cloud-download.svg"
   inkscape:version="1.0.2 (e86c870879, 2021-01-15)">
  <metadata
     id="metadata10">
    <rdf:RDF>
      <cc:Work
         rdf:about="">
        <dc:format>image/svg+xml</dc:format>
        <dc:type
           rdf:resource="http://purl.org/dc/dcmitype/StillImage" />
      </cc:Work>
    </rdf:RDF>
  </metadata>
  <defs
     id="defs8" />
  <sodipodi:namedview
     pagecolor="#ffffff"
     bordercolor="#666666"
     borderopacity="1"
     objecttolerance="10"
     gridtolerance="10"
     guidetolerance="10"
     inkscape:pageopacity="0"
     inkscape:pageshadow="2"
     inkscape:window-width="1057"
     inkscape:window-height="709"
     id="namedview6"
     showgrid="false"
     inkscape:zoom="28.876898"
     inkscape:cx="8"
     inkscape:cy="13.448623"
     inkscape:window-x="0"
     inkscape:window-y="32"
     inkscape:window-maximized="0"
     inkscape:current-layer="svg4" />
  <path
     d="m 9.0347001,-0.98582506 c -2.4293305,0 -4.5575043,1.9290299 -5.0192778,4.48611596 C 1.80694,3.5002909 0,5.519043 0,7.9864068 0,8.8163383 0.22084822,9.5789781 0.56215912,10.229465 H 6.0231334 V 9.1079358 c 0,-1.8617381 1.3451665,-3.364587 3.0115667,-3.364587 1.6663999,0 3.0115669,1.5028489 3.0115669,3.364587 v 1.1215292 h 3.834728 c 0.120463,-0.3588899 0.180694,-0.7177787 0.180694,-1.1215292 0,-1.4579877 -0.843239,-2.8935448 -2.007711,-3.364587 V 4.6218199 c 0,-3.0954201 -2.248637,-5.60764496 -5.0192779,-5.60764496 z M 8.7134663,7.9864068 A 1.0038556,1.121529 0 0 0 8.0308445,9.1079358 V 12.472522 H 5.0192778 l 4.0154223,4.486117 4.0154219,-4.486117 H 10.038556 V 9.1079358 a 1.0038556,1.121529 0 0 0 -1.1845499,-1.121529 1.0038556,1.121529 0 0 0 -0.1204627,0 z"
     id="path2"
     style="stroke-width:2.12213;fill:#ffffff" />
</svg>
