<?xml version="1.0" encoding="UTF-8" standalone="no"?>
<svg
   xmlns:dc="http://purl.org/dc/elements/1.1/"
   xmlns:cc="http://creativecommons.org/ns#"
   xmlns:rdf="http://www.w3.org/1999/02/22-rdf-syntax-ns#"
   xmlns:svg="http://www.w3.org/2000/svg"
   xmlns="http://www.w3.org/2000/svg"
   xmlns:xlink="http://www.w3.org/1999/xlink"
   xmlns:sodipodi="http://sodipodi.sourceforge.net/DTD/sodipodi-0.dtd"
   xmlns:inkscape="http://www.inkscape.org/namespaces/inkscape"
   width="180"
   height="42"
   id="svg2"
   sodipodi:version="0.32"
   inkscape:version="1.0.2 (e86c870879, 2021-01-15)"
   sodipodi:docname="nagstamon_logo.svg"
   inkscape:output_extension="org.inkscape.output.svg.inkscape"
   version="1.1">
  <defs
     id="defs4">
    <inkscape:perspective
       sodipodi:type="inkscape:persp3d"
       inkscape:vp_x="0 : 526.18109 : 1"
       inkscape:vp_y="0 : 1000 : 0"
       inkscape:vp_z="744.09448 : 526.18109 : 1"
       inkscape:persp3d-origin="372.04724 : 350.78739 : 1"
       id="perspective10" />
    <inkscape:perspective
       id="perspective2433"
       inkscape:persp3d-origin="372.04724 : 350.78739 : 1"
       inkscape:vp_z="744.09448 : 526.18109 : 1"
       inkscape:vp_y="6.123234e-14 : 1000 : 0"
       inkscape:vp_x="0 : 526.18109 : 1"
       sodipodi:type="inkscape:persp3d" />
    <linearGradient
       id="linearGradient3163">
      <stop
         id="stop3165"
         offset="0"
         style="stop-color:#ffffff;stop-opacity:1;" />
      <stop
         id="stop3167"
         offset="1"
         style="stop-color:#c3c3c3;stop-opacity:1;" />
    </linearGradient>
    <linearGradient
       id="linearGradient3191">
      <stop
         style="stop-color:#767676;stop-opacity:1;"
         offset="0"
         id="stop3193" />
      <stop
         style="stop-color:#d4d4d4;stop-opacity:1;"
         offset="1"
         id="stop3195" />
    </linearGradient>
    <linearGradient
       id="linearGradient3343">
      <stop
         style="stop-color:#ffffff;stop-opacity:0.59740257;"
         offset="0"
         id="stop3345" />
      <stop
         style="stop-color:#ffffff;stop-opacity:0.32034633;"
         offset="1"
         id="stop3347" />
    </linearGradient>
    <linearGradient
       id="linearGradient3371">
      <stop
         style="stop-color:#575a5b;stop-opacity:1;"
         offset="0"
         id="stop3373" />
      <stop
         style="stop-color:#000000;stop-opacity:0;"
         offset="1"
         id="stop3375" />
    </linearGradient>
    <linearGradient
       inkscape:collect="always"
       xlink:href="#linearGradient3163"
       id="linearGradient3884"
       gradientUnits="userSpaceOnUse"
       x1="200.94165"
       y1="299.38992"
       x2="550.94165"
       y2="599.38995" />
    <linearGradient
       inkscape:collect="always"
       xlink:href="#linearGradient3191"
       id="linearGradient3886"
       gradientUnits="userSpaceOnUse"
       x1="540.94165"
       y1="589.38995"
       x2="210.94165"
       y2="309.38992" />
    <linearGradient
       inkscape:collect="always"
       xlink:href="#linearGradient3191"
       id="linearGradient3888"
       gradientUnits="userSpaceOnUse"
       gradientTransform="matrix(0.8787879,0,0,0.8571431,45.568681,64.198531)"
       x1="210.94165"
       y1="309.38995"
       x2="540.94165"
       y2="589.38995" />
    <linearGradient
       inkscape:collect="always"
       xlink:href="#linearGradient3343"
       id="linearGradient3890"
       gradientUnits="userSpaceOnUse"
       gradientTransform="translate(0,1.0253906e-5)"
       x1="380.94165"
       y1="349.38992"
       x2="380.94165"
       y2="439.38992" />
  </defs>
  <sodipodi:namedview
     id="base"
     pagecolor="#ffffff"
     bordercolor="#666666"
     borderopacity="1.0"
     inkscape:pageopacity="0.0"
     inkscape:pageshadow="2"
     inkscape:zoom="2.6810563"
     inkscape:cx="-135.91187"
     inkscape:cy="-20.808887"
     inkscape:document-units="px"
     inkscape:current-layer="g3378"
     showgrid="false"
     inkscape:window-width="1920"
     inkscape:window-height="1011"
     inkscape:window-x="0"
     inkscape:window-y="32"
     inkscape:window-maximized="1"
     fit-margin-top="10"
     fit-margin-left="10"
     fit-margin-right="10"
     fit-margin-bottom="10"
     units="px"
     showguides="true"
     inkscape:guide-bbox="true"
     inkscape:document-rotation="0"
     inkscape:snap-to-guides="false"
     inkscape:snap-grids="false">
    <sodipodi:guide
       position="93.214286,13.571429"
       orientation="0,1"
       id="guide4177" />
  </sodipodi:namedview>
  <metadata
     id="metadata7">
    <rdf:RDF>
      <cc:Work
         rdf:about="">
        <dc:format>image/svg+xml</dc:format>
        <dc:type
           rdf:resource="http://purl.org/dc/dcmitype/StillImage" />
        <dc:title></dc:title>
      </cc:Work>
    </rdf:RDF>
  </metadata>
  <g
     inkscape:label="Ebene 1"
     inkscape:groupmode="layer"
     id="layer1"
     transform="translate(-120.44974,-504.3294)">
    <g
       id="g3894"
       inkscape:export-xdpi="37"
       inkscape:export-ydpi="37">
      <g
         id="g3414"
         transform="matrix(0.45280533,0,0,0.45280533,64.941726,297.05922)">
        <g
           id="g3791"
           transform="translate(-97.35898,-49.862263)"
           inkscape:export-xdpi="37.161289"
           inkscape:export-ydpi="37.161289">
          <g
             transform="matrix(0.1832949,0,0,0.1832949,171.09181,307.1134)"
             id="g3191" />
          <g
             id="g3378"
             transform="translate(0,4.021768)">
            <g
               id="g85"
               transform="translate(-0.65994596,-3.5385901)">
              <g
                 transform="matrix(0.22697284,0,0,0.22697284,184.47016,451.5041)"
                 inkscape:export-ydpi="34.611824"
                 inkscape:export-xdpi="34.611824"
                 id="g3518">
                <rect
                   ry="39.583015"
                   inkscape:export-ydpi="10.383548"
                   inkscape:export-xdpi="10.383548"
                   style="fill:#434343;fill-opacity:1;stroke:none"
                   id="rect3470"
                   width="370"
                   height="320"
                   x="190.94165"
                   y="289.38992" />
                <rect
                   ry="37.109081"
                   inkscape:export-ydpi="10.383548"
                   inkscape:export-xdpi="10.383548"
                   style="fill:url(#linearGradient3884);fill-opacity:1;stroke:none"
                   id="rect3171"
                   width="350"
                   height="300.00003"
                   x="200.94165"
                   y="299.38989" />
                <rect
                   ry="34.635136"
                   inkscape:export-ydpi="10.383548"
                   inkscape:export-xdpi="10.383548"
                   style="fill:url(#linearGradient3886);fill-opacity:1;stroke:none"
                   id="rect3173"
                   width="330"
                   height="279.99997"
                   x="210.94165"
                   y="309.38995" />
                <rect
                   ry="29.687262"
                   inkscape:export-ydpi="10.383548"
                   inkscape:export-xdpi="10.383548"
                   style="fill:url(#linearGradient3888);fill-opacity:1;stroke:none"
                   id="rect3197"
                   width="290"
                   height="240.00003"
                   x="230.94165"
                   y="329.38992" />
                <rect
                   ry="27.213316"
                   inkscape:export-ydpi="10.383548"
                   inkscape:export-xdpi="10.383548"
                   style="fill:#000000;fill-opacity:1;stroke:none"
                   id="rect3201"
                   width="270"
                   height="219.99997"
                   x="240.94165"
                   y="339.38995" />
                <g
                   transform="rotate(180,375.94165,449.38993)"
                   id="g2417">
                  <path
                     inkscape:connector-curvature="0"
                     style="fill:#ffff00;fill-opacity:1;stroke:none"
                     d="m 268.15497,339.38992 h 215.57336 c 15.07618,0 27.21332,12.13714 27.21332,27.21332 0,22.7867 0,32.7867 0,42.7867 h -270 v -42.7867 c 0,-15.07618 12.13714,-27.21332 27.21332,-27.21332 z"
                     id="rect3244"
                     sodipodi:nodetypes="ccccccc" />
                  <path
                     inkscape:connector-curvature="0"
                     style="fill:#ff0000;fill-opacity:1;stroke:none"
                     d="M 483.72833,559.38994 H 268.15497 c -15.07618,0 -27.21332,-12.13714 -27.21332,-27.21332 0,-22.7867 0,-42.7867 0,-52.7867 h 270 v 52.7867 c 0,15.07618 -12.13714,27.21332 -27.21332,27.21332 z"
                     id="path3247"
                     sodipodi:nodetypes="ccccccc" />
                  <rect
                     style="fill:#ff8500;fill-opacity:1;stroke:none"
                     id="rect3249"
                     width="270"
                     height="70"
                     x="70"
                     y="156.04276"
                     transform="translate(170.94165,253.34718)"
                     ry="0" />
                </g>
                <path
                   inkscape:connector-curvature="0"
                   id="text3349"
                   d="m 297.87524,359.38994 h 49.96768 l 63.09873,123.45615 V 359.38994 h 42.41444 v 180 H 403.3884 L 340.28968,415.93378 v 123.45616 h -42.41444 v -180"
                   style="font-style:normal;font-weight:normal;font-size:40px;font-family:'Bitstream Vera Sans';fill:#000000;fill-opacity:1;stroke:none" />
                <path
                   inkscape:connector-curvature="0"
                   sodipodi:nodetypes="cccszccc"
                   id="path3333"
                   d="m 268.15497,339.38994 h 215.54361 c 15.24307,0 27.26669,12.23819 27.24307,27.25 0,10.41937 0,12.75002 0,12.75002 0,18.21611 -54.30068,-8.87725 -130,50 -75.69932,58.87724 -130,60 -140,60 v -122.7867 c 0,-15.07618 12.13714,-27.21332 27.21332,-27.21332 z"
                   style="fill:url(#linearGradient3890);fill-opacity:1;stroke:none" />
              </g>
              <path
                 inkscape:connector-curvature="0"
                 id="path3373"
                 style="font-style:normal;font-weight:normal;font-size:medium;font-family:'Bitstream Vera Sans';-inkscape-font-specification:'Bitstream Vera Sans';fill:#000000;fill-opacity:1;stroke:none;stroke-width:1.2383"
                 d="m 355.55578,554.09492 v 16.87152 h -4.59224 v -16.72177 q 0,-3.96831 -1.54739,-5.93998 -1.5474,-1.97167 -4.64216,-1.97167 -3.71873,0 -5.86511,2.371 -2.14638,2.371 -2.14638,6.46409 v 15.79833 h -4.61721 v -27.95282 h 4.61721 v 4.34267 q 1.64723,-2.52074 3.86848,-3.76863 2.2462,-1.24791 5.16627,-1.24791 4.81687,0 7.2877,2.99495 2.47083,2.96999 2.47083,8.76022 z" />
              <path
                 inkscape:connector-curvature="0"
                 id="path3375"
                 style="font-style:normal;font-weight:normal;font-size:medium;font-family:'Bitstream Vera Sans';-inkscape-font-specification:'Bitstream Vera Sans';fill:#000000;fill-opacity:1;stroke:none;stroke-width:1.2383"
                 d="m 377.4688,556.91516 q -5.5656,0 -7.71199,1.27285 -2.14637,1.27286 -2.14637,4.34267 0,2.44587 1.5973,3.89343 1.62226,1.4226 4.39259,1.4226 3.81855,0 6.11469,-2.69546 2.32108,-2.7204 2.32108,-7.21282 v -1.02327 z m 9.15955,-1.8968 v 15.94808 h -4.59225 v -4.24284 q -1.57235,2.54571 -3.91839,3.76865 -2.34604,1.19797 -5.74031,1.19797 -4.29276,0 -6.83846,-2.39596 -2.52074,-2.42091 -2.52074,-6.46409 0,-4.71704 3.14469,-7.11299 3.16965,-2.39596 9.43408,-2.39596 h 6.43913 v -0.44923 q 0,-3.16966 -2.09646,-4.89175 -2.07151,-1.74706 -5.84014,-1.74706 -2.39597,0 -4.66713,0.57404 -2.27117,0.57403 -4.36764,1.7221 v -4.24285 q 2.52074,-0.97336 4.89176,-1.44755 2.37099,-0.49917 4.61719,-0.49917 6.06477,0 9.05972,3.1447 2.99495,3.14469 2.99495,9.53391 z" />
              <path
                 inkscape:connector-curvature="0"
                 id="path3377"
                 style="font-style:normal;font-weight:normal;font-size:medium;font-family:'Bitstream Vera Sans';-inkscape-font-specification:'Bitstream Vera Sans';fill:#000000;fill-opacity:1;stroke:none;stroke-width:1.2383"
                 d="m 414.50628,556.66557 q 0,-4.99157 -2.0715,-7.73694 -2.04654,-2.74537 -5.76527,-2.74537 -3.69376,0 -5.76527,2.74537 -2.04654,2.74537 -2.04654,7.73694 0,4.96663 2.04654,7.712 2.07151,2.74536 5.76527,2.74536 3.71873,0 5.76527,-2.74536 2.0715,-2.74537 2.0715,-7.712 z m 4.59227,10.83173 q 0,7.13795 -3.16967,10.60709 -3.16964,3.49411 -9.70861,3.49411 -2.42091,0 -4.56728,-0.37438 -2.14639,-0.3494 -4.16797,-1.09813 v -4.46747 q 2.02158,1.09816 3.99325,1.62226 1.97169,0.52412 4.01823,0.52412 4.51737,0 6.76358,-2.37099 2.2462,-2.34605 2.2462,-7.11301 v -2.27116 q -1.42258,2.47084 -3.64384,3.69376 -2.22125,1.22294 -5.31603,1.22294 -5.14132,0 -8.28601,-3.91838 -3.14468,-3.91839 -3.14468,-10.38249 0,-6.48904 3.14468,-10.40742 3.14469,-3.9184 8.28601,-3.9184 3.09478,0 5.31603,1.22294 2.22126,1.22294 3.64384,3.69377 v -4.24284 h 4.59227 z" />
              <path
                 inkscape:connector-curvature="0"
                 id="path3379"
                 style="font-style:normal;font-weight:normal;font-size:medium;font-family:'Bitstream Vera Sans';-inkscape-font-specification:'Bitstream Vera Sans';fill:#000000;fill-opacity:1;stroke:none;stroke-width:1.2383"
                 d="m 446.3775,543.83723 v 4.34267 q -1.9467,-0.99831 -4.04317,-1.49747 -2.09646,-0.49917 -4.34267,-0.49917 -3.41923,0 -5.14132,1.04824 -1.69715,1.04823 -1.69715,3.14469 0,1.59731 1.22294,2.52075 1.22294,0.89849 4.91671,1.7221 l 1.57234,0.3494 q 4.89175,1.04823 6.93829,2.96999 2.07151,1.8968 2.07151,5.31604 0,3.89342 -3.09478,6.16458 -3.06983,2.27117 -8.46073,2.27117 -2.2462,0 -4.69207,-0.44924 -2.42091,-0.42429 -5.11637,-1.29781 v -4.742 q 2.54571,1.32277 5.01654,1.99664 2.47083,0.6489 4.89174,0.6489 3.24453,0 4.99157,-1.09814 1.74706,-1.12312 1.74706,-3.1447 0,-1.87184 -1.27286,-2.87016 -1.24788,-0.99831 -5.51568,-1.92175 l -1.5973,-0.37437 q -4.26781,-0.89848 -6.1646,-2.74537 -1.89681,-1.87185 -1.89681,-5.11636 0,-3.94334 2.79529,-6.08973 2.79529,-2.14638 7.93661,-2.14638 2.54571,0 4.79191,0.37437 2.24621,0.37438 4.143,1.12311 z" />
              <path
                 inkscape:connector-curvature="0"
                 id="path3381"
                 style="font-style:normal;font-weight:normal;font-size:medium;font-family:'Bitstream Vera Sans';-inkscape-font-specification:'Bitstream Vera Sans';fill:#000000;fill-opacity:1;stroke:none;stroke-width:1.2383"
                 d="m 459.75492,535.07701 v 7.93661 h 9.45904 v 3.56898 h -9.45904 v 15.17438 q 0,3.41924 0.92344,4.39259 0.9484,0.97336 3.81856,0.97336 h 4.71704 v 3.84351 h -4.71704 q -5.31603,0 -7.33761,-1.97167 -2.02159,-1.99663 -2.02159,-7.23779 V 546.5826 h -3.36932 v -3.56898 h 3.36932 v -7.93661 z" />
              <path
                 inkscape:connector-curvature="0"
                 id="path3383"
                 style="font-style:normal;font-weight:normal;font-size:medium;font-family:'Bitstream Vera Sans';-inkscape-font-specification:'Bitstream Vera Sans';fill:#000000;fill-opacity:1;stroke:none;stroke-width:1.2383"
                 d="m 487.98227,556.91516 q -5.56561,0 -7.71198,1.27285 -2.14639,1.27286 -2.14639,4.34267 0,2.44587 1.59731,3.89343 1.62227,1.4226 4.3926,1.4226 3.81854,0 6.11467,-2.69546 2.3211,-2.7204 2.3211,-7.21282 v -1.02327 z m 9.15955,-1.8968 v 15.94808 h -4.59224 v -4.24284 q -1.57236,2.54571 -3.9184,3.76865 -2.34604,1.19797 -5.74031,1.19797 -4.29276,0 -6.83847,-2.39596 -2.52074,-2.42091 -2.52074,-6.46409 0,-4.71704 3.1447,-7.11299 3.16964,-2.39596 9.43407,-2.39596 h 6.43915 v -0.44923 q 0,-3.16966 -2.09647,-4.89175 -2.07151,-1.74706 -5.84015,-1.74706 -2.39596,0 -4.66713,0.57404 -2.27116,0.57403 -4.36762,1.7221 v -4.24285 q 2.52075,-0.97336 4.89175,-1.44755 2.37099,-0.49917 4.61721,-0.49917 6.06475,0 9.05971,3.1447 2.99494,3.14469 2.99494,9.53391 z" />
              <path
                 inkscape:connector-curvature="0"
                 id="path3385"
                 style="font-style:normal;font-weight:normal;font-size:medium;font-family:'Bitstream Vera Sans';-inkscape-font-specification:'Bitstream Vera Sans';fill:#000000;fill-opacity:1;stroke:none;stroke-width:1.2383"
                 d="m 528.38909,548.37956 q 1.72209,-3.09477 4.11805,-4.5673 2.39595,-1.47251 5.64047,-1.47251 4.36764,0 6.73864,3.06983 2.37099,3.04485 2.37099,8.68534 v 16.87152 h -4.61721 v -16.72177 q 0,-4.01823 -1.4226,-5.96494 -1.4226,-1.94671 -4.34267,-1.94671 -3.56897,0 -5.64047,2.371 -2.0715,2.371 -2.0715,6.46409 v 15.79833 h -4.61721 v -16.72177 q 0,-4.04318 -1.4226,-5.96494 -1.42261,-1.94671 -4.39259,-1.94671 -3.51905,0 -5.59057,2.39595 -2.0715,2.371 -2.0715,6.43914 v 15.79833 h -4.61721 v -27.95282 h 4.61721 v 4.34267 q 1.57235,-2.57066 3.76863,-3.7936 2.1963,-1.22294 5.2162,-1.22294 3.04487,0 5.16628,1.5474 2.14638,1.54738 3.16966,4.49241 z" />
              <path
                 inkscape:connector-curvature="0"
                 id="path3387"
                 style="font-style:normal;font-weight:normal;font-size:medium;font-family:'Bitstream Vera Sans';-inkscape-font-specification:'Bitstream Vera Sans';fill:#000000;fill-opacity:1;stroke:none;stroke-width:1.2383"
                 d="m 567.27346,546.23318 q -3.69377,0 -5.84014,2.89512 -2.14638,2.87015 -2.14638,7.88669 0,5.01653 2.12142,7.91165 2.14638,2.87015 5.8651,2.87015 3.6688,0 5.81518,-2.89511 2.14637,-2.89512 2.14637,-7.88669 0,-4.96663 -2.14637,-7.86173 -2.14638,-2.92008 -5.81518,-2.92008 z m 0,-3.89343 q 5.98988,0 9.40912,3.89343 3.41923,3.89343 3.41923,10.78181 0,6.86341 -3.41923,10.7818 -3.41924,3.89343 -9.40912,3.89343 -6.01484,0 -9.43407,-3.89343 -3.39427,-3.91839 -3.39427,-10.7818 0,-6.88838 3.39427,-10.78181 3.41923,-3.89343 9.43407,-3.89343 z" />
              <path
                 inkscape:connector-curvature="0"
                 id="path3389"
                 style="font-style:normal;font-weight:normal;font-size:medium;font-family:'Bitstream Vera Sans';-inkscape-font-specification:'Bitstream Vera Sans';fill:#000000;fill-opacity:1;stroke:none;stroke-width:1.2383"
                 d="m 610.9248,554.09492 v 16.87152 h -4.59226 v -16.72177 q 0,-3.96831 -1.54738,-5.93998 -1.54739,-1.97167 -4.64216,-1.97167 -3.71873,0 -5.8651,2.371 -2.14638,2.371 -2.14638,6.46409 v 15.79833 h -4.61721 v -27.95282 h 4.61721 v 4.34267 q 1.64721,-2.52074 3.86846,-3.76863 2.24621,-1.24791 5.16628,-1.24791 4.81688,0 7.28771,2.99495 2.47083,2.96999 2.47083,8.76022 z" />
            </g>
          </g>
        </g>
      </g>
    </g>
  </g>
</svg>
